<svg width="327" height="82" fill="none" xmlns="http://www.w3.org/2000/svg"><path d="M313.744 68.606h-1.577l-1.545-.069-1.549-.107-1.661-.28-1.656-.276-.732-.186-.832-.269-1.457-.551-.732-.305-.648-.26-.649-.37-.63-.474-.542-.368-.571-.451-.445-.547-.455-.462-.378-.656-.368-.543-.276-.673-.189-.736-.082-.286v-.357l-.092-.827v-.737l.092-.925.581-2.532.605-2.651-2.193-.094-2.203-.097-.915 2.687-.053.155-.508 1.433-.456.74-.46.628-.377.55-.258.29-1.02 1.206-1.094 1.19-.655.552-.537.56-1.38.921-.755.466-.707.47-1.569.829-.735.37-.921.369-1.738.63-.731.185-.847.288-.809.185-.827.198-1.656.337-1.739.307-1.926.28-1.84.087-2.019.107-2.121.069-2.662-.069h-1.279l-1.292-.193-1.182-.101-1.177-.18-1.098-.189-1.104-.267.73.737.742.833 1.452 1.462.838.65.799.754.842.647.847.629.804.665.828.554 1.83 1.205 1.831 1.003 1.94 1.01 1.923.85 2.009.738 2.107.65 2.125.565.992.17 1.124.183 2.183.291 1.119.175h1.084l2.31.091 2.192-.091h1.007l1.119-.105 1.09-.174 1.001-.084 2.126-.456.998-.19 1.026-.284 2.009-.576.915-.359 1.021-.37.911-.37 1.016-.456 1.831-.837 1.729-1.022 1.757-1.001 1.753-1.22 1.549-1.184 1.545-1.306.847-.745.73-.64.726-.748.655-.714h-.655l-.726.069z" fill="#0D62AD"/><path d="M259.877 63.161l.925.268.997.277 1.196.094 1.205.2h1.371l1.37-.105 1.545-.095 1.481-.268 1.559-.282.731-.275.741-.199.741-.269.643-.264.722-.295.741-.276.639-.349.654-.374 1.258-.93 1.404-1.02.537-.47.446-.56.46-.436.372-.577.649-.91.408-.687.144-.247.184-.378.185-.36.372-1.305-1.656.202-1.655.267-1.647.281-1.655.368-1.656.36-1.549.473-1.196.339-.47.133-1.554.554-1.646.65-1.564.64-1.579.632-1.53.848-1.495.823-1.56.832-1.471.925-1.434 1.036.703.344.934.385zM249.336 45.86l1.454-.461 3.393-1.108 1.84-.472 1.821-.458 1.385-.276 1.461-.367 1.477-.294 1.549-.258-3.572-1.942-1.56-1.01-.833-.462-.546-.472-.62-.37-.475-.46-.45-.451-.45-.464-.475-.47-.256-.46-.387-.475-.354-.537-.295-.537-.277-.49-.178-.552-.175-.556-.092-.664-.092-.546v-.638l.092-1.1.184-1.21.261-1.11.277-.552.193-.638.654-1.131.639-1.005.446-.47.367-.566.475-.44.45-.483.538-.636.746-.557.725-.571.833-.537.813-.557.925-.354.92-.474 1.002-.37 1.031-.279.984-.276 1.113-.169 1.201-.211 1.181-.174 1.196-.075 2.474-.104 1.287.104h1.294l1.37.181 1.293.17 2.744.463 1.381.285 1.369.353 1.386.46 1.374.378 1.38.547 1.375.572 1.37.553 1.371.642 1.394.743 1.37.748-7.984 7.592.087-.76-.087-1.116v-.622l-.188-.775-.204-.721-.354-.746-.344-.639-.56-.74-.286-.369-.363-.286-.359-.363-.378-.285-.464-.262-.445-.28-1.192-.483-1.006-.355-1.211-.28-1.094-.263-1.192-.193-1.195-.186-1.283-.1-1.192-.091-1.37-.096-1.109.095-1.001.092-1.017.184-1.007.201-.847.268-.891.369-.746.355-.73.483-.379.28-.373.262-.266.285-.252.276-.58.557-.354.542-.358.567-.17.663-.218.622v1.21l.218.565.17.554.266.453.271.552.461.576.464.542.451.55.649.545.73.638.838.572.799.552 1.747 1.027 1.85.827 1.012.46.93.367 1.921.66 1.821.541 1.738.473 4.134 1.194 3.477 1.023 4.706 1.285 2.662.378 2.46.438 2.397.477 2.381.554 3.579-14.98h-6.599l18.258-15.795-1.478-1.401-1.452-1.39-1.573-1.276-1.549-1.191-1.748-1.138-.833-.535-.809-.472-1.834-1.017-.925-.459-.925-.371-1.932-.84-.915-.285-1.007-.354-1.927-.566-1.021-.277-.993-.275-1.007-.187-1.109-.174-1.016-.104-.993-.181L287.673 0h-4.208l-2.033.187-2.01.285-2.013.36-1.932.455-1.007.301-.92.268-1.932.64-1.84.64-1.753.849-.91.45-.818.474-.827.46-.926.537-1.549 1.031-1.632 1.105-1.486 1.215-1.462 1.298-1.477 1.37-1.278 1.394-1.293 1.477-1.201 1.564-1.098 1.578-1.114 1.666-.983 1.665-.368.94-.454.813-.838 1.847-.374.951-.358.9-.629 1.845-.562 1.951-.184 1.013-.271 1.021-.363 1.96-.189 2.025-.189 2.125-.082 2.043.082 1.654.092 1.657.18 1.671.183 1.57 2.29-.831 1.399-.565zm73.302-21.367l-.644-1.37-.629-1.386-.731-1.3-.832-1.299-.838-1.289-.354-.66-.464-.628-.92-1.21-1.012-1.097-2.096 10.239h8.52zm3.312 14.627l-.092-1.57-.092-1.59-.286-1.45-.184-1.587-.344-1.479-.372-1.48-.47-1.488h-10.724l-4.134 17.67 2.091.648 2.043.739 3.84 1.469 3.674 1.489 3.496 1.488.363-1.312.358-1.38.286-1.384.189-1.395.174-1.472.092-1.385.092-1.485.092-1.463-.092-1.583z" fill="#0D62AD"/><path d="M319.433 51.885l-2.488-.748-2.653-.831-2.755-.738-2.934-.852-2.948-.635-3.022-.653-3.099-.552-3.132-.452-3.104-.361-3.147-.286-3.118-.184h-3.025l-2.949.184-1.462.082-1.452.204-2.107.176-2.116.27-2.121.285-2.198.286-2.105.348-2.097.475-2.13.377-2.126.436-2.013.572-2.01.464-1.84.634-1.839.567-1.729.646-1.646.647-1.463.658-1.398.72.556 1.488.093.247.455 1.242.294.636.344.731.654 1.402 1.187-.745 1.466-.827 1.748-.93 1.917-1.016 1.114-.471.058-.022 1.046-.43 1.191-.556 1.278-.472 1.283-.547 1.38-.45 2.938-.925 1.555-.474 1.569-.369 3.306-.75 1.743-.378 1.826-.256 1.83-.275 1.942-.19 1.921-.173 2.01-.112 2.024-.092h2.106l2.11.092 2.208.111 2.286.175 2.207.28 2.489.092 1.283.174 1.278.102 2.662.37 2.644.453 2.581.46 2.673.475 4.764 1.014-.828 2.128-4.309-.649-4.319-.649-.267 1.196-.149.625-.034.133-.184.912-.189 1.017v.925l.092 1.024.097.56.072.45.204.462.261.481.286.436.367.372.461.376.465.27.629.384.644.191.74.18.824.174.925.094h2.202l1.182-.094 1.385-.174 1.461-.282.741-1.119.649-1.182.731-1.209.538-1.21 1.118-2.484.305-.687.232-.523.378-1.298-2.125-.83-2.378-.823zM59.067 67.753l-.702-.895-.436-.269-.513-.168-.615-.086-.64.086-.503.168-.871.607-.523.974-.17.516-.096.868v.62l.188.542.165.543.267.505.425.443.524.257.542.189.692.09.615-.09 1.046-.446.426-.443.267-.505.256-.543.077-.542.107-.94-.107-.548-.421-.933zm26.013-1.559l.025-.208.097-.619.189-.71.339-2.023.334-2.024.266-.962.257-.966.542-2.012.063-.232.993-3.728 1.205-3.878-.692-.603-2.44 1.213-1.655-.43-.8-.26-.89-.08-.586-.099-.61-.09-.808.09-.6.1-.784.16-.77.348-.88.44-.78.445-.771.533-.819.52-.696.608-.693.635-1.288 1.24-.61.677-.615.801-.427.69-.402.668-.14.232-.426.765-.354.994-.353.883-.354.949-.43 1.397-.436 1.399-.344 1.52-.257 1.473-.01.145-.082 1.269-.077 1.321.077.78v.728l.092.516.16.45.808.872.853.165.43.092h.533l.518-.092.62-.165.508-.17.537-.276.518-.266.519-.353.518-.436.533-.455.533-.421.959-1.06.963-1.144.959-1.055.207-.3.655-.925.871-1.308.887-1.328 1.292-2.283-1.515 5.844-.062.228-.078.616-.412 1.835-.112.799-.092.692v.625l.092.43.344.711.543.335.595.109.537-.11.6-.076.601-.257.702-.365 1.49-.868 1.482-1.048.693-.443.62-.533.61-.446.691-.523-.532-1.568-.514.339-.78.707-.615.436-.44.256-.446.17-.673.183-.513-.61.068-.435.135-1.186v-.004zm-3.524-7.954l-.79 1.757-.886 1.774-.508.862-.547.782-.509.799-.62.813-.604.676-.411.491-.19.228-.594.615-.717.61-.702.34-1.118.44-.533-.78v-.61l.052-.843.034-.57.16-1.662.353-1.863.436-1.837.252-1.242.363-1.213.417-1.136.073-.232.3-.93.445-1.04.417-.866.44-.792.523-.71.881-.711.93-.27.722-.08h.523l.523.08.692.154.78.29 1.418.537-.373 1.22-.16.608-.174.62-.625 1.842-.014.048-.659 1.802v-.001zm81.527 6.86l-.391 1.094-.049.14-.605 1.216-.276.62-.344.614-.595.185-.703.169-.784.097-.702.17-1.491.159-1.477.107h-2.889l-1.729-.107h-.455l-.688-.088-.6-.072.668-3.21 2.018-9.756 2.024-9.784.16-.795.175-.808.174-.692.189-.513.334-.613.701-.452.436-.083h2.877l.363-1.598h-2.634l-.683.097h-2.711l-2.005.073h-1.046l-.522-.073h-2.183l-.446-.097h-2.169l-.426 1.598h2.081l.96.083.435.096.513.526v1.309l-.077.533-.179 1.237-.02.172-.053.43-.097.523-.266 1.404-.174.78-1.405 6.647-1.718 8.14-.189.958-.164.658-.165.664-.185.788-.198.78-.417.978-.692.603-.44.09-.522.196-.863.161h-.435l-.363 1.506 2.11-.106h6.875l2.61.106h6.904l1.559-.106h3.229l.339-1.757.354-1.67.585-2.233.286-1.094.169-.629.174-.692h-1.635l-.442 1.321zm20.403-16.021l-2.271.102h-2.27l.513-2.097.111-.43.16-.627.349-1.038.266-1.143.344-1.065.605-2.114-.436-.428-5.926 1.927-.509 3.248-.193 1.24-.067.43-.339 1.588-2.557 1.12-1.38.449-1.331.358-.17 1.232h1.579l.522-.104h1.046l.542.104h.949l-1.128 4.607-1.151 4.697-.33 1.419-.45 1.408-.329 1.138-.195.603-.14.491-.038.14-.17.783-.077.786-.102.79v1.154l.102.446.077.433.348.789.694.518.44.174.455.088h.939l.436-.088.514-.077.541-.097.963-.348.954-.426.96-.533.866-.63 1.83-1.225 1.472-1.225 1.385-1.057-.223-.395-.373-.658-1.07.658-.925.573-1.574.88-.629.256-1.017.34-.455.116-.778-.373-.161-.436v-.96l.063-.395.025-.145.159-1.293.886-3.098.083-.523.086-.525 1.037-4.172 1.138-4.607h1.234l1.384.063 1.74.097h2.458l.165-.718.16-.773.446-1.421h-2.262zm-55.639.196l-2.184.08h-2.096l.421-2.113.16-.588.121-.45.353-1.153.529-2.096.6-2.208-.436-.42-5.569 1.918-.43 3.348-.189 1.06-.092.51-.363 1.669-2.43 1.148-1.221.45-.62.17-.662.168-.107 1.332.523-.109h.866l.528-.097h.523l.523.097h.959l.445.11-1.022 4.337-1.161 4.954-.382 1.41-.33 1.412-.334 1.213-.18.622-.043.145-.146.48-.168.789-.078.78-.083.827-.097.777.18.783.078.434.106.451.852.872.436.186.445.08h.876l.436-.08.514-.11.435-.076.886-.354.959-.426.861-.543.436-.338.446-.272 1.718-1.316 1.429-1.152 1.288-1.041-.427-.75-.178-.315-.499.314-1.336.842-1.574.867-.611.34-.948.372h-.605l-.432-.256-.188-.456-.072-.523v-.522l.072-.523.02-.14.077-.492.17-.603.353-1.491.348-1.669.077-.548.18-.514 1.06-4.44 1.041-4.338h2.344l1.661.068h1.214l1.134.107.159-.797.199-.818.174-.68.169-.705h-2.091zm-18.51-.875l-.585.084-.713.188-.59.238-.527.365-.514.346-.542.533-.514.506-.449.55-.437.62-.861 1.323-.789 1.218-.629 1.4-.315.667-.271.57-.451 1.134-.944 2.118.872-3.822.77-3.4.092-.435.247-1.04.116-.443.077-.62v-.52l-.077-.705-.455-.791-.789-.354-.771.17-.455.184-.493.188-.455.238-1.027.614-.968.717-.79.635-.861.602-1.385 1.331-1.234 1.04.615 1.061.43-.363.698-.515.6-.43 1.138-.565h.513l.624.623v.45l-.082.697-.107.896-.12.735-.039.232-.17 1.136-.62 2.455-.614 2.637-.073.454-.174.506-.097.443-.179.54-.31 1.353-.213.923-.586 2.02-.799 2.823.436.504.788-.257.79-.174.871-.18.877-.089.77-.08.871-.077.266-1.51.339-1.738.523-2.124.01-.04.533-2.06.416-1.332.514-1.305.542-1.34.508-1.217.624-1.225.266-.45.349-.528.233-.3.377-.488.687-.586.611-.383.779-.174.713-.088.512.088.94.174.445.198.451.185.522-.104.17-1.858.256-1.675.35-1.66.342-1.767h-.692l-.707.1zm97.951-6.767l-1.38 5.02-.707 2.571-.973-.314-.863-.157-.875-.18-.693-.09h-1.399l-.799.09-.774.26-.78.247-.968.445-.852.455-.798.52-.867.54-.789.607-.702.627-.702.605-.701.61-.591.711-.625.71-.513.79-.494.736-.039.054-.417.876-.445.871-.353.968-.354.949-.436 1.341-.426 1.4-.354 1.51-.17.78-.179.692-.039.314-.049.395-.097.694v2.121l.097.693.087.445.179.445.863.867.875.276h1.046l.606-.097.522-.18.61-.17 1.055-.523 1.123-.707.537-.447.606-.531 1.065-.958 1.026-1.138.435-.522.513-.623.039-.04.93-1.095.958-1.321.876-1.226 1.394-2.396-1.646 6.037-.015.041-.164.623-.33 1.835-.193.784-.092.698.092.551.078.533.339.596.537.353.702.087h.509l.639-.165.673-.276.707-.34 1.574-.886 1.554-.959.688-.533.712-.445.692-.522.702-.417-.61-1.559-.01-.03-.048.03-.451.3-1.152.886-.775.436-.523.256-.702.17-.523-.338.083-.787.125-.922.058-.402.257-1.321.348-2.005.426-1.927.524-2.043.542-1.927.039-.13.552-1.89.615-1.945.45-1.384 1.966-4.566 1.525-3.53 1.036-2.796-1.143.17-4.609 1.136.003.003zm-6.387 16.51l-.765 1.771-.954 1.744-.542.808-.509.886-.61.693-.63.796-.595.695-.658.658-.044.041-.682.623-.717.605-.252.087-.707.436-.606.184-.774-.267-.087-.44-.107-.605.102-.664.005-.03v-.738l.159-.77.097-.878.339-1.837.436-1.855.707-2.37.436-1.147.043-.13.305-1.005.523-1.063.435-.881.427-.78.546-.719.595-.513.702-.269.702-.17.698-.097h.604l.523.097.789.17.784.27.78.248.697.264-.353 1.252-.451 1.225-.585 1.837-.058.133-.751 1.705h.003zM54.758 40.103l.184-.857.262-1.215-2.881.096H50.84l-1.5.082h-.94l-3.399.078h-7.93l-1.661-.078h-1.579l-1.481-.082h-1.486l-2.881-.096-.174 1.151-.146.92-.019.137-.183 1.03-.17.976-.17.799-.077.802-.349 1.568-.194.533-.077.615.949.092.79.077.014-.077.082-.45.077-.523.097-.436.272-.96.174-.633.16-.528.605-1.402.697-.622.436-.068.446-.118.522-.08 1.03-.087h5.344l-1.192 5.907-1.966 9.784-1.476 7.34-.087.523-.097.726-.198 1.167-.054.3-.44 1.676-.257.701-.513.976-.542.16-.615.167-1.206.119h-.77l-.721-.12-.339 1.787 1.918-.106h11.339l1.907.106.358-1.786-.765.119h-1.258l-.678-.12-.61-.166-.524-.16-.532-.777-.087-.552v-.445l.087-.61.18-1.228.004-.04.092-.572.068-.596.188-.814.17-.604.174-.711 1.327-6.46 2-9.784 1.21-5.907h3.846l1.908.167.872.186.61.17.445.285.176.45v1.646l-.098.432v.629l-.078.533v.702l-.091.707-.006.077h1.657l.014-.077.252-1.504.266-1.58.688-3.073.082-.394zm167.209-5.985h.853l1.292 2.148h.799l-1.375-2.182c.692-.102 1.269-.475 1.269-1.37 0-.996-.577-1.402-1.729-1.402h-1.84v4.954h.731v-2.148zm0-2.193h1.002c.514 0 1.056.131 1.056.728 0 .766-.543.826-1.182.826h-.876v-1.555.001zM22.498 38.476l-1.142-.445-1.225-.344-1.206-.17-.436-.09-.522-.099h-2.185l-.866.1-.789.167-.87.19-.776.246-.794.257-.79.363-.774.445-.779.436-.702.513-.083.058-.62.474-.609.62-.606.625-.522.692-.524.799-.445.77-.799 1.864-.164.707-.083.338-.247.97-.116.948-.077.881.077.809.116.789.165.711.16.78.368.61.431.79.528.701.692.632.707.433.683.392.096.053.872.344.78.354.871.349.799.178.765.264 1.157.342.499.174.542.187.682.337.62.454.523.44.338.516.354.625.17.603.082.61.087.709v.438l-.087.547-.082.794-.17.61-.184.514-.13.314-.126.3-.252.45-.363.436-.354.436-.851.8-.524.353-.436.266-.967.435-.528.177-.518.16-.514.09H9.227l-.764-.09-.693-.08-.779-.257-.707-.266-.692-.334-.615-.455-.61-.445-.543-.524-.508-.879-.261-.432-.03-.14-.15-.83v-.894l.098-.862.082-.711.077-.63H1.748l-.344 2.14-.369 1.786-.057.3-.456 2.121L0 70.63l.79.434 1.306.62.45.17.95.276.87.165.959.169h.96l.866.11h.871l.887-.11.948-.17.968-.164.96-.276.856-.339.978-.353.861-.436.877-.552.861-.504.79-.6.774-.644.707-.673.606-.717.6-.8.03-.042.513-.828.435-.895.426-.775.257-.893.257-.862.178-.985.098-.799.087-.78-.087-.625-.098-.697-.072-.62-.179-.6-.17-.397-.091-.232-.34-.503-.445-.524-.532-.46-.43-.348-.607-.339-.522-.372-.62-.258-1.288-.434-1.332-.451-.851-.242-1.41-.38-1.215-.417-.595-.269-.533-.333-.533-.276-.799-.722-.585-.867-.285-.711-.248-.79v-1.483l.17-.707.078-.516.188-.518.184-.44.257-.443.605-.952.353-.446.35-.45.435-.358.522-.363.436-.257.537-.25.518-.183.131-.041.48-.13.523-.097h1.64l.79.169.271.058.165.04.522.184.518.25.95.455.46.238 1.046.975.348.71.087.448v2.19l-.087.61v.615h1.39l.034-.164.144-.795.151-.978.63-2.99.357-1.483.069-.305.256-1.112-.59-.258-.529-.257zM7.18 12.714h4.706v8.507h.92v-9.306H6.26v9.306h.92v-8.507zm11.809 8.669c2.682 0 4.067-1.963 4.096-4.814.024-2.518-1.293-4.817-4.096-4.817-2.799 0-4.12 2.299-4.092 4.817.025 2.851 1.414 4.814 4.092 4.814zm0-8.828c2.188 0 3.176 2.037 3.176 4.014 0 1.973-.988 4.013-3.176 4.013-2.184 0-3.171-2.04-3.171-4.013 0-1.976.987-4.014 3.17-4.014zm10.37 8.68h.92v-9.32h-4.943v6.866c0 .92-.334 1.736-1.36 1.736l.078.866c1.55 0 2.189-1.135 2.189-2.561v-6.108h3.118v8.521h-.002zm9.286-8.04h.03v8.026h.919v-9.306h-1.162l-4.735 8.187h-.028v-8.187h-.92v9.306h1.244l4.652-8.026zm4.353-.481h3.718v-.799h-4.638v9.306h.92v-8.507zm6.135 4.481h1.544c1.671 0 2.979-.908 2.979-2.642 0-1.76-1.133-2.638-2.881-2.638h-2.561v9.306h.92v-4.026h-.001zm0-4.481h1.758c1.176 0 1.844.663 1.844 1.84 0 1.68-1.307 1.842-2.696 1.842h-.905v-3.682h-.001zm9.498-.799l-3.815 9.306h.891l1.002-2.494h4.692l1.003 2.494h.958l-3.695-9.306h-1.036zm-1.573 6.013l2.024-5.135 2.014 5.135h-4.038zm11.769 3.292h.92v-.798c2.29 0 4.348-1.308 4.348-3.869 0-2.559-2.058-3.869-4.348-3.869v-.77h-.92v.77c-2.295 0-4.353 1.31-4.353 3.87s2.058 3.868 4.353 3.868v.799zm.92-7.814c1.84 0 3.413 1.108 3.413 3.147 0 2.039-1.573 3.147-3.413 3.147v-6.294zm-4.332 3.147c0-2.039 1.569-3.147 3.413-3.147V19.7c-1.844 0-3.413-1.108-3.413-3.147zm16.665-3.358h.024v8.026h.919v-9.306h-1.157l-4.735 8.187h-.024v-8.187h-.924v9.306h1.244l4.652-8.026zm8.38 2.826s-1.214.736-2.415.719c-1.225-.015-1.772-.612-1.772-1.668v-3.157h-.92v3.304c0 1.48.905 2.375 2.479 2.39 1.429.009 2.628-.764 2.628-.764v4.375h.92v-9.306h-.92v4.107zm8.139 4.401h-3.801v-3.587h3.453v-.8h-3.453v-3.321h3.641v-.799h-4.56v9.306h4.72v-.8zm6.377.961c.591 0 1.626-.094 2.135-.402l-.053-.801c-.533.32-1.467.402-2.082.402-2.455 0-3.772-1.665-3.772-4.013 0-2.305 1.361-4.014 3.772-4.014.653 0 1.496.091 2.082.396l.053-.852c-.48-.252-1.589-.349-2.135-.349-2.881 0-4.692 1.99-4.692 4.818 0 2.88 1.757 4.814 4.692 4.814v.001zm4.982-4.815l4.501 4.653h1.269l-4.894-4.92 4.507-4.386h-1.2l-4.183 4.17v-4.17h-.926v9.306h.926v-4.653zm13.081-3.373h.029v8.026h.92v-9.306h-1.162l-4.735 8.187h-.025v-8.187h-.924v9.306h1.244l4.653-8.026zm6.845-2.069c.935 0 1.521-.653 1.642-1.532h-.397c-.161.559-.712.733-1.245.733-.532 0-1.079-.174-1.239-.733h-.397c.116.879.707 1.532 1.635 1.532h.001zm-2.464 8.976h-.028v-8.187h-.92v9.306h1.24l4.657-8.026h.024v8.026h.92v-9.306h-1.157l-4.736 8.187zm13.174-3.534l4.509 4.653h1.263l-4.89-4.92 4.508-4.386h-1.201l-4.189 4.17v-4.17h-.919v9.306h.919v-4.653zm10.856 4.815c2.683 0 4.067-1.963 4.096-4.814.028-2.518-1.293-4.817-4.096-4.817-2.798 0-4.12 2.299-4.091 4.817.024 2.851 1.414 4.814 4.091 4.814zm0-8.828c2.189 0 3.175 2.037 3.175 4.014 0 1.973-.987 4.013-3.175 4.013-2.183 0-3.171-2.04-3.171-4.013 0-1.976.988-4.014 3.171-4.014zm10.975 7.547l-3.403-8.187h-1.428v9.306h.919v-8.39h.03l3.495 8.39h.785l3.388-8.39h.025v8.39h.92v-9.306h-1.317l-3.414 8.187zm8.188-7.388h4.705v8.507h.921v-9.306h-6.546v9.306h.92v-8.507zm9.238 6.108v-6.108h3.118v8.521h.92v-9.32h-4.943v6.866c0 .92-.338 1.736-1.36 1.736l.077.866c1.549 0 2.189-1.135 2.189-2.561h-.001zm11.256 1.6h-3.801v-3.587h3.452v-.8h-3.452v-3.321h3.641v-.799h-4.561v9.306h4.721v-.8zm3.016-3.854l4.507 4.653h1.269l-4.894-4.92 4.507-4.386h-1.2l-4.189 4.17v-4.17h-.92v9.306h.92v-4.653zm11.461 4.815c.585 0 1.626-.094 2.129-.402l-.054-.801c-.532.32-1.461.402-2.076.402-2.455 0-3.777-1.665-3.777-4.013 0-2.305 1.36-4.014 3.777-4.014.653 0 1.491.091 2.076.396l.054-.852c-.479-.252-1.583-.349-2.129-.349-2.881 0-4.697 1.99-4.697 4.818 0 2.88 1.762 4.814 4.697 4.814v.001z" fill="#0D62AD"/></svg>