<svg width="100" height="99" fill="none" xmlns="http://www.w3.org/2000/svg"><g clip-path="url(#clip0)"><path d="M97.361 0h-59.4a1.65 1.65 0 00-1.65 1.65V16.5H1.661a1.65 1.65 0 00-1.65 1.65v79.2c0 .911.739 1.65 1.65 1.65h59.4a1.65 1.65 0 001.65-1.65V82.5h34.65a1.65 1.65 0 001.65-1.65V1.65A1.65 1.65 0 0097.361 0zm-57.75 4.856l16.3 11.644h-16.3V4.856zm19.8 90.844h-56.1V19.8h56.1v75.9zm36.3-16.5h-33V18.15a1.619 1.619 0 00-.708-1.32l.017-.025L43.11 3.3h52.601v75.9z" fill="#fff"/><path d="M89.111 8.25h-19.8a1.65 1.65 0 00-1.65 1.65v9.9c0 .911.739 1.65 1.65 1.65h19.8a1.65 1.65 0 001.65-1.65V9.9a1.65 1.65 0 00-1.65-1.65zm-1.65 9.9h-16.5v-6.6h16.5v6.6zm-16.5 6.6h-3.3v3.3h3.3v-3.3zm19.8 0h-16.5v3.3h16.5v-3.3zm0 6.6h-23.1v3.3h23.1v-3.3zm0 6.6h-23.1v3.3h23.1v-3.3z" fill="#F22B36"/><path d="M89.111 47.85h-19.8a1.65 1.65 0 00-1.65 1.65v9.9c0 .911.739 1.65 1.65 1.65h19.8a1.65 1.65 0 001.65-1.65v-9.9a1.65 1.65 0 00-1.65-1.65zm-1.65 9.9h-16.5v-6.6h16.5v6.6zm-16.5 6.6h-3.3v3.3h3.3v-3.3zm19.8 0h-16.5v3.3h16.5v-3.3zm0 6.6h-23.1v3.3h23.1v-3.3zm-67.65 3.3h-13.2a1.65 1.65 0 00-1.65 1.65v13.2c0 .911.739 1.65 1.65 1.65h13.2a1.65 1.65 0 001.65-1.65V75.9a1.65 1.65 0 00-1.65-1.65zm-1.65 13.2h-9.9v-9.9h9.9v9.9zm9.9-13.2h-3.3v3.3h3.3v-3.3zm23.1 0h-19.8v3.3h19.8v-3.3zm0 6.6h-26.4v3.3h26.4v-3.3zm0 6.6h-26.4v3.3h26.4v-3.3z" fill="#fff"/><path d="M51.161 26.4h-39.6a1.65 1.65 0 00-1.65 1.65v33c0 .911.739 1.65 1.65 1.65h39.6a1.65 1.65 0 001.65-1.65v-33a1.65 1.65 0 00-1.65-1.65zm-1.65 33h-36.3v-5.841l9.812-8.415 12.121 12.12 2.334-2.334-2.134-2.13 5.917-5.917 8.25 8.25V59.4zm0-8.933l-7.084-7.084a1.65 1.65 0 00-2.333 0l-7.083 7.084-8.734-8.734a1.65 1.65 0 00-2.239-.085l-8.827 7.565V29.7h36.3v20.767z" fill="#F22B36"/><path d="M33.011 33a4.95 4.95 0 100 9.9 4.95 4.95 0 000-9.9zm0 6.6a1.65 1.65 0 110-3.3 1.65 1.65 0 010 3.3zM21.461 33h-3.3v3.3h3.3V33zm24.75 3.3h-3.3v3.3h3.3v-3.3z" fill="#F22B36"/></g><defs><clipPath id="clip0"><path fill="#fff" transform="translate(.011)" d="M0 0h99v99H0z"/></clipPath></defs></svg>