<svg width="99" height="99" fill="none" xmlns="http://www.w3.org/2000/svg"><path d="M56.278 46.95a1.655 1.655 0 002.221.72c.097-.049 9.81-4.983 14.6-6.496a1.65 1.65 0 00-.997-3.148C67.056 39.622 57.41 44.522 57 44.73a1.65 1.65 0 00-.723 2.22zm1.474-18.9c.25 0 .508-.057.747-.18.097-.049 9.81-4.982 14.6-6.495a1.65 1.65 0 00-.998-3.148c-5.045 1.595-14.691 6.496-15.1 6.704a1.651 1.651 0 00-.723 2.219c.292.57.873.9 1.474.9z" fill="#F22B36"/><path d="M97.35 24.75c-.913 0-1.65.74-1.65 1.65v64.35a4.956 4.956 0 01-4.95 4.95h-39.6v-3.797C53.556 91.062 59.822 89.1 66 89.1c14.373 0 24.133 3.183 24.23 3.216a1.649 1.649 0 002.17-1.566v-72.6c0-.773-.537-1.443-1.292-1.61 0 0-1.294-.288-3.505-.695a1.65 1.65 0 00-.597 3.246c.843.155 1.55.292 2.094.401v69.065C85.36 87.577 77.058 85.8 66 85.8c-7.19 0-14.251 2.361-16.436 3.161-1.942-.858-7.813-3.161-14.914-3.161-11.365 0-20.727 1.874-24.75 2.826V19.428c3.295-.81 13.027-2.928 24.75-2.928 6.016 0 11.175 1.873 13.2 2.72v64.93a1.65 1.65 0 002.5 1.414c.163-.097 16.511-9.862 31.02-14.698A1.65 1.65 0 0082.5 69.3V1.65a1.65 1.65 0 00-.712-1.356 1.648 1.648 0 00-1.52-.19C67.069 5.057 53.71 13.37 53.576 13.452a1.65 1.65 0 001.75 2.799c.121-.078 11.742-7.308 23.874-12.187V68.12c-11.262 3.914-23.022 10.304-28.05 13.165V18.151a1.65 1.65 0 00-.912-1.477c-.284-.14-7.045-3.473-15.587-3.473-14.91 0-26.372 3.226-26.854 3.364A1.649 1.649 0 006.6 18.15v72.6a1.649 1.649 0 002.102 1.586c.114-.032 11.524-3.237 25.948-3.237 6.032 0 11.187 1.878 13.2 2.721v3.88H8.25a4.957 4.957 0 01-4.95-4.95V26.4a1.65 1.65 0 00-3.3 0v64.35C0 95.298 3.701 99 8.25 99h82.5c4.549 0 8.25-3.702 8.25-8.25V26.4a1.65 1.65 0 00-1.65-1.65z" fill="#fff"/><path d="M56.278 37.05a1.655 1.655 0 002.221.72c.097-.049 9.81-4.983 14.6-6.496a1.65 1.65 0 00-.997-3.148C67.056 29.722 57.41 34.623 57 34.83a1.651 1.651 0 00-.723 2.22zm0 19.8a1.655 1.655 0 002.221.72c.097-.05 9.81-4.983 14.6-6.496a1.65 1.65 0 00-.997-3.148C67.056 49.522 57.41 54.422 57 54.63a1.65 1.65 0 00-.723 2.22zM39.976 30.621c-10.188-2.39-21.766.655-22.253.786a1.65 1.65 0 00.855 3.187c.11-.03 11.258-2.963 20.646-.76a1.65 1.65 0 10.752-3.212zm0 9.9c-10.188-2.389-21.766.655-22.253.786a1.65 1.65 0 00.855 3.187c.11-.031 11.258-2.963 20.646-.76a1.65 1.65 0 10.752-3.212zM56.278 66.75a1.655 1.655 0 002.221.72c.097-.05 9.81-4.983 14.6-6.496a1.65 1.65 0 00-.997-3.148C67.056 59.422 57.41 64.322 57 64.53a1.651 1.651 0 00-.723 2.22zM39.976 50.421c-10.188-2.389-21.766.654-22.253.786a1.65 1.65 0 00.855 3.187c.11-.031 11.258-2.963 20.646-.76a1.65 1.65 0 10.752-3.212zm0 19.8c-10.188-2.39-21.766.655-22.253.785a1.65 1.65 0 00.855 3.188c.11-.031 11.258-2.963 20.646-.76a1.65 1.65 0 10.752-3.212zm0-9.9c-10.188-2.39-21.766.653-22.253.785a1.65 1.65 0 00.855 3.188c.11-.031 11.258-2.963 20.646-.76a1.65 1.65 0 10.752-3.212z" fill="#F22B36"/></svg>