<svg width="99" height="91" fill="none" xmlns="http://www.w3.org/2000/svg"><path d="M86.625 24.875c2.389 0 4.125-2.602 4.125-6.188 0-3.585-1.736-6.187-4.125-6.187-2.389 0-4.125 2.602-4.125 6.187 0 3.586 1.736 6.188 4.125 6.188z" fill="#F22B36"/><path d="M92.265 35.188C96.279 32.151 99 26.012 99 18.688 99 8.277 93.566.124 86.625.124h-74.25C5.435.125 0 8.278 0 18.687c0 7.326 2.721 13.465 6.735 16.5C2.721 38.223 0 44.362 0 51.687c0 8.05 3.337 14.92 8.25 17.471v13.473c0 4.546 3.702 8.244 8.25 8.244h30.938c.547 0 1.071-.218 1.458-.605l16.5-16.5A2.06 2.06 0 0066 72.313V70.25h20.625C93.565 70.25 99 62.097 99 51.687c0-7.325-2.721-13.464-6.735-16.5zM86.625 4.25c4.471 0 8.25 6.613 8.25 14.438s-3.779 14.437-8.25 14.437-8.25-6.613-8.25-14.438S82.154 4.25 86.625 4.25zm-82.5 14.437c0-7.825 3.779-14.437 8.25-14.437h66.476c-2.8 3.376-4.601 8.508-4.601 14.437 0 5.93 1.8 11.063 4.601 14.438H12.375c-4.471 0-8.25-6.613-8.25-14.438zM8.25 64.068v.038c-2.47-2.572-4.125-7.293-4.125-12.418 0-7.826 3.779-14.438 8.25-14.438h2.153C11.91 41.58 8.25 50.11 8.25 64.068zM49.5 83.833V78.5a4.13 4.13 0 014.125-4.125h5.333L49.5 83.833zm12.375-19.77v6.187h-8.25c-4.548 0-8.25 3.7-8.25 8.25v8.25H16.5a4.125 4.125 0 01-4.125-4.119V64.07c0-16.444 5.447-24.658 7.143-26.819H67.45c-2.614 4-5.575 11.812-5.575 26.812zM66 66.122v-2.06c0-19.987 5.5-25.721 6.821-26.813h6.03c-2.8 3.375-4.601 8.508-4.601 14.438 0 5.928 1.8 11.061 4.6 14.436H66zm20.625.002c-4.471 0-8.25-6.612-8.25-14.438 0-7.825 3.779-14.437 8.25-14.437s8.25 6.612 8.25 14.438c0 7.825-3.779 14.437-8.25 14.437z" fill="#fff"/><path d="M86.625 45.5c-2.389 0-4.125 2.602-4.125 6.187 0 3.586 1.736 6.188 4.125 6.188 2.389 0 4.125-2.602 4.125-6.188 0-3.585-1.736-6.187-4.125-6.187z" fill="#F22B36"/></svg>